<mxfile host="app.diagrams.net" modified="2024-05-05T13:48:52.670Z" agent="Mozilla/5.0 (Windows NT 10.0; Win64; x64) AppleWebKit/537.36 (KHTML, like Gecko) Chrome/122.0.0.0 Safari/537.36 OPR/108.0.0.0" version="24.3.1" etag="2rWmOgnFlE7bKi2WUggY" type="github">
  <diagram name="PÃ¡gina-1" id="39gzqweCyteo2qR0AHA1">
    <mxGraphModel>
      <root>
        <mxCell id="0" />
        <mxCell id="1" parent="0" />
      </root>
    </mxGraphModel>
  </diagram>
</mxfile>
